<?xml version="1.0" encoding="utf-8"?>
<!-- Generator: Adobe Illustrator 22.1.0, SVG Export Plug-In . SVG Version: 6.00 Build 0)  -->
<svg version="1.1" id="图层_1" xmlns="http://www.w3.org/2000/svg" xmlns:xlink="http://www.w3.org/1999/xlink" x="0px" y="0px"
	 viewBox="0 0 1024 1024" style="enable-background:new 0 0 1024 1024;" xml:space="preserve">
<style type="text/css">
	.st0{fill:#BFC8CB;}
</style>
<path class="st0" d="M832,192H192c-35.3,0-64-28.7-64-64v0c0-35.3,28.7-64,64-64h640c35.3,0,64,28.7,64,64v0
	C896,163.3,867.3,192,832,192z"/>
<path class="st0" d="M896,576H128c-35.3,0-64-28.7-64-64v0c0-35.3,28.7-64,64-64h768c35.3,0,64,28.7,64,64v0
	C960,547.3,931.3,576,896,576z"/>
<path class="st0" d="M831.1,960H192c-35.3,0-64-28.7-64-64v0c0-35.3,28.7-64,64-64h639.1c35.3,0,64,28.7,64,64v0
	C895.1,931.3,866.4,960,831.1,960z"/>
</svg>
