<?xml version="1.0" encoding="utf-8"?>
<!-- Generator: Adobe Illustrator 22.1.0, SVG Export Plug-In . SVG Version: 6.00 Build 0)  -->
<svg version="1.1" id="图层_1" xmlns="http://www.w3.org/2000/svg" xmlns:xlink="http://www.w3.org/1999/xlink" x="0px" y="0px"
	 viewBox="0 0 1024 1024" style="enable-background:new 0 0 1024 1024;" xml:space="preserve">
<style type="text/css">
	.st0{fill:#BFC8CB;}
</style>
<path class="st0" d="M828.8,738.3c24.9,24.9,24.9,65.6,0,90.5l0,0c-24.9,24.9-65.6,24.9-90.5,0L512,602.5L285.7,828.8
	c-24.9,24.9-65.6,24.9-90.5,0l0,0c-24.9-24.9-24.9-65.6,0-90.5L421.5,512L195.2,285.7c-24.9-24.9-24.9-65.6,0-90.5l0,0
	c24.9-24.9,65.6-24.9,90.5,0L512,421.5l226.3-226.3c24.9-24.9,65.6-24.9,90.5,0l0,0c24.9,24.9,24.9,65.6,0,90.5L602.5,512
	L828.8,738.3z"/>
</svg>
