<?xml version="1.0" encoding="utf-8"?>
<!-- Generator: Adobe Illustrator 22.1.0, SVG Export Plug-In . SVG Version: 6.00 Build 0)  -->
<svg version="1.1" id="图层_1" xmlns="http://www.w3.org/2000/svg" xmlns:xlink="http://www.w3.org/1999/xlink" x="0px" y="0px"
	 viewBox="0 0 1024 1024" style="enable-background:new 0 0 1024 1024;" xml:space="preserve">
<style type="text/css">
	.st0{fill:#EE8F8F;}
</style>
<g>
	<path class="st0" d="M656.6,443.4c-1.1-40.4,5.7-74,22.5-105.6c23.1-43.8,60.5-70,104.4-88.9c13.4-5.8,21.2-2.7,20.7,12.9
		c-2.1,67.9,23.6,128.5,52.6,187.3c70.7,143.2,40.3,275.7-47.8,397.1C736.7,945.8,628.3,982.2,508.7,982
		c-137.3-0.3-245.6-61.4-317.8-176.5c-62-99-83.1-207.7-41-321.8c15.2-41.2,40.7-75.3,74.1-104.1c18.9-16.4,25.5-9.6,28.9,10.8
		c6.3,38.3,16.7,75.4,32.9,110.6c10.1,21.9,20.7,43.7,43.6,58.6c6.6-10.1,2.3-19.6,1.6-28.8c-8.8-108.5-5.1-215.3,45-315.5
		c36.9-73.9,91-130.7,166.4-166.1c26.7-12.6,30.4-10.3,29.9,20.1c-1.3,88.1,0,175.8,23.1,261.7C609.2,382.2,626.8,416.7,656.6,443.4
		z"/>
</g>
</svg>
