<?xml version="1.0" encoding="utf-8"?>
<!-- Generator: Adobe Illustrator 22.1.0, SVG Export Plug-In . SVG Version: 6.00 Build 0)  -->
<svg version="1.1" id="图层_1" xmlns="http://www.w3.org/2000/svg" xmlns:xlink="http://www.w3.org/1999/xlink" x="0px" y="0px"
	 viewBox="0 0 1024 1024" style="enable-background:new 0 0 1024 1024;" xml:space="preserve">
<style type="text/css">
	.st0{opacity:0.2;}
	.st1{fill:white;}
</style>
<g class="st0">
	<circle class="st1" cx="480.5" cy="481.5" r="414.5"/>
</g>
<g>
	<path class="st1" d="M942.1,850.6L816.2,724.7c49.6-68.3,78.8-152.3,78.8-243.2C895,252.6,709.4,67,480.5,67S66,252.6,66,481.5
		S251.6,896,480.5,896c91.9,0,176.8-29.9,245.5-80.5l125.6,125.6c24.9,24.9,65.6,24.9,90.5,0l0,0C967,916.2,967,875.5,942.1,850.6z
		 M592,745.5c-35.2,14.9-72.7,22.5-111.5,22.5s-76.2-7.6-111.5-22.5c-34.1-14.4-64.8-35.1-91.1-61.5s-47-57-61.5-91.1
		c-14.9-35.2-22.5-72.7-22.5-111.5s7.6-76.2,22.5-111.5c14.4-34.1,35.1-64.8,61.5-91.1s57-47,91.1-61.5
		c35.2-14.9,72.7-22.5,111.5-22.5s76.2,7.6,111.5,22.5c34.1,14.4,64.8,35.1,91.1,61.5s47,57,61.5,91.1
		c14.9,35.2,22.5,72.7,22.5,111.5s-7.6,76.2-22.5,111.5c-14.4,34.1-35.1,64.8-61.5,91.1S626.1,731.1,592,745.5z"/>
</g>
</svg>
